# xmcd
#
# Track frame offsets:
# 150
# 18749
# 37109
# 49926
# 75263
# 91650
# 114044
# 137321
# 153283
#
# Disc length: 2406 seconds
#
#
# Revision: 0
# Processed by: cddbd v1.5.2PL0 Copyright (c) Steve Scherf et al.
# Submitted via: FreeRIP 2.60 
#
DISCID=5b096409
DTITLE=Blues Etilicos - Agua Mineral
DYEAR=1900
DGENRE=
TTITLE0=Funky Blues (homenagem a Charlie McCoy)
TTITLE1=Driftin' Blues
TTITLE2=Frank Zappa vai pr  Martinica
TTITLE3=It's not easy
TTITLE4=Crossroads
TTITLE5=Mona's Blues
TTITLE6=Vou pega ma beibe
TTITLE7=Kansas City
TTITLE8=Maracujina
EXTD=
EXTT0=
EXTT1=
EXTT2=
EXTT3=
EXTT4=
EXTT5=
EXTT6=
EXTT7=
EXTT8=
PLAYORDER=
